<?xml version="1.0" standalone="no"?>
<!DOCTYPE svg PUBLIC "-//W3C//DTD SVG 20010904//EN"
 "http://www.w3.org/TR/2001/REC-SVG-20010904/DTD/svg10.dtd">
<svg version="1.0" xmlns="http://www.w3.org/2000/svg"
 width="300.000000pt" height="100.000000pt" viewBox="0 0 300.000000 100.000000"
 preserveAspectRatio="xMidYMid meet">

<g transform="translate(0.000000,100.000000) scale(0.100000,-0.100000)"
fill="#000000" stroke="none">
<path d="M594 872 c-14 -10 -91 -133 -103 -165 -20 -53 -11 -52 14 1 13 28 26
52 29 52 7 0 -20 -82 -45 -132 -27 -56 -38 -48 -40 27 -1 28 -4 41 -6 31 -4
-15 -7 -16 -14 -5 -6 9 -6 1 -2 -21 l6 -35 -29 20 c-64 43 -124 67 -124 50 0
-20 45 -87 79 -118 56 -50 64 -47 15 6 -44 46 -79 97 -67 97 24 0 78 -47 105
-90 38 -61 46 -65 17 -9 -11 23 -16 38 -10 34 18 -11 43 -66 37 -82 -3 -8 -1
-24 6 -36 10 -20 10 -21 -5 -8 -22 17 -22 7 0 -25 9 -14 22 -49 29 -77 7 -29
13 -43 14 -32 2 22 18 -39 24 -94 2 -19 12 -42 23 -51 15 -11 17 -18 9 -26
-15 -14 -28 0 -43 46 l-11 35 -1 -45 c-1 -36 -4 -41 -12 -27 -6 9 -8 27 -5 40
3 12 -1 8 -9 -9 -8 -17 -22 -34 -31 -38 -17 -7 -17 -6 -1 12 24 26 12 55 -19
49 -13 -2 -21 0 -18 5 4 6 17 8 31 5 53 -10 60 92 13 191 -16 35 -25 60 -20
57 16 -10 11 11 -5 25 -8 7 -15 10 -15 6 0 -3 -43 16 -95 43 -72 37 -92 44
-84 30 10 -19 35 -33 105 -59 37 -13 79 -55 89 -88 6 -22 5 -23 -14 -13 -11 7
-28 25 -36 41 -9 17 -18 30 -21 30 -2 0 0 -9 6 -19 16 -31 12 -35 -16 -16 -15
9 -23 12 -19 5 9 -14 -20 -7 -70 17 l-30 14 23 -20 c12 -11 52 -29 88 -41 36
-12 77 -33 92 -47 23 -20 24 -23 7 -19 -92 23 -115 30 -150 51 -50 29 -81 70
-96 129 -13 51 -29 70 -29 34 0 -44 21 -99 52 -134 38 -43 88 -70 168 -88 76
-18 92 -31 88 -70 -2 -24 -9 -31 -34 -38 -40 -10 -74 -47 -81 -91 -8 -55 23
-70 146 -71 113 -1 151 15 151 62 0 48 -46 102 -86 102 -13 0 -26 5 -29 10
-14 22 9 49 68 80 126 67 165 97 196 151 31 55 48 133 36 169 l-7 22 -14 -21
c-8 -11 -42 -30 -76 -43 -72 -26 -160 -107 -179 -166 -15 -45 -38 -82 -51 -82
-18 0 -3 108 18 132 10 12 13 18 7 14 -29 -17 -10 15 24 41 21 15 46 36 56 47
14 13 21 15 27 6 5 -8 9 -5 13 10 4 17 2 20 -11 15 -9 -4 -21 -7 -27 -8 -5 -1
-13 -9 -17 -18 -6 -15 -68 -53 -73 -47 -8 9 38 190 59 232 26 52 28 60 10 48z
m221 -239 c-15 -104 -67 -163 -201 -231 -34 -17 -69 -38 -78 -47 -25 -26 -19
0 8 33 14 16 52 43 85 61 70 37 122 96 67 75 -13 -5 -14 -9 -5 -14 8 -5 -2
-15 -30 -30 -24 -12 -46 -19 -49 -16 -3 4 10 23 29 43 19 21 24 29 11 19 -12
-11 -25 -16 -29 -13 -4 4 -18 -3 -31 -15 -24 -22 -24 -22 -14 -2 20 38 118
120 159 132 22 6 48 21 58 32 10 11 20 20 23 20 2 0 1 -21 -3 -47z m-310 -40
c-4 -27 -13 -59 -21 -73 -14 -24 -15 -22 -9 24 6 46 23 96 33 96 2 0 1 -21 -3
-47z m85 -143 c-24 -15 -36 -11 -14 4 10 8 21 12 24 10 2 -3 -2 -9 -10 -14z
m5 -200 c3 -6 -1 -13 -11 -17 -16 -6 -15 -7 2 -20 10 -7 13 -13 7 -13 -13 0
-63 39 -63 49 0 11 58 12 65 1z m-145 -26 c0 -2 -10 -9 -22 -15 -20 -11 -21
-10 -11 3 7 8 10 18 6 22 -4 4 0 4 10 0 9 -3 17 -8 17 -10z m24 -70 c3 -8 2
-12 -4 -9 -6 3 -10 10 -10 16 0 14 7 11 14 -7z"/>
<path d="M679 563 c-13 -16 -12 -17 4 -4 16 13 21 21 13 21 -2 0 -10 -8 -17
-17z"/>
<path d="M555 240 c3 -5 12 -7 20 -3 21 7 19 13 -6 13 -11 0 -18 -4 -14 -10z"/>
<path d="M2106 755 c-27 -84 -28 -85 -60 -85 -18 0 -35 -3 -39 -6 -13 -13 7
-34 33 -34 l28 0 -26 -81 c-27 -83 -56 -117 -87 -105 -8 3 -15 17 -15 30 0 55
-46 106 -95 106 -32 0 -74 -34 -97 -77 -22 -41 -70 -74 -86 -59 -3 4 -7 23 -8
42 -2 75 -100 118 -154 69 -34 -31 -60 -90 -60 -135 0 -49 34 -90 76 -90 30 0
89 33 103 57 5 10 24 16 55 17 40 0 49 -3 59 -24 17 -34 57 -55 90 -46 15 3
43 20 62 37 25 23 47 32 75 33 l40 2 0 -38 c0 -40 34 -88 62 -88 32 1 98 41
128 79 l33 40 19 -24 c23 -29 77 -41 109 -25 13 7 36 24 51 38 26 24 28 24 34
6 19 -53 68 -69 113 -38 l23 17 -7 -53 c-6 -47 -5 -52 11 -48 15 2 23 21 36
84 10 45 47 164 83 264 42 117 62 187 56 193 -17 17 -29 -3 -77 -133 -42 -114
-49 -128 -65 -120 -53 29 -105 5 -175 -82 -59 -74 -103 -103 -139 -94 -24 6
-46 47 -28 53 46 16 100 53 111 76 12 24 11 32 -2 53 -19 28 -27 29 -72 8 -22
-11 -43 -32 -56 -58 -46 -90 -140 -196 -174 -196 -8 0 -19 11 -26 25 -12 28
-3 90 34 213 l21 72 68 0 c62 0 69 2 69 20 0 18 -7 20 -60 20 -33 0 -60 1 -60
3 0 2 11 37 25 77 30 88 30 90 7 90 -14 0 -24 -20 -46 -85z m244 -214 c0 -16
-35 -49 -60 -57 -27 -7 -26 -5 19 49 15 18 41 23 41 8z m-524 -17 c-8 -20 18
-79 40 -92 16 -9 15 -12 -11 -36 -35 -32 -64 -30 -84 5 -18 32 -10 67 25 108
28 34 39 40 30 15z m-286 -18 c0 -14 12 -39 27 -57 l27 -32 -28 -23 c-32 -28
-49 -30 -70 -8 -22 21 -20 72 4 112 23 38 40 41 40 8z m71 -3 c14 -38 6 -50
-19 -25 -12 12 -19 28 -16 37 9 23 23 18 35 -12z m289 -21 l0 -26 -21 21 c-14
13 -19 28 -15 38 9 25 36 0 36 -33z m705 38 c3 -5 -5 -29 -19 -53 -55 -92
-108 -114 -114 -45 -4 51 45 108 93 108 19 0 37 -4 40 -10z"/>
<path d="M390 764 c0 -8 5 -12 10 -9 6 4 8 11 5 16 -9 14 -15 11 -15 -7z"/>
<path d="M1280 738 c-19 -5 -41 -15 -48 -20 -9 -8 -16 -6 -27 8 -20 27 -29 13
-59 -91 -78 -273 -106 -389 -93 -397 20 -13 30 11 82 207 55 207 71 234 147
257 104 31 121 -69 32 -189 l-24 -31 -39 21 c-39 21 -40 21 -60 3 -44 -40 -14
-103 44 -92 l33 6 4 -117 c4 -95 9 -126 26 -160 26 -49 66 -83 98 -83 36 0 29
28 -11 45 -55 22 -73 73 -76 221 l-3 122 38 42 c47 52 66 96 66 154 0 77 -54
117 -130 94z m-40 -279 c0 -5 -7 -9 -15 -9 -15 0 -20 12 -9 23 8 8 24 -1 24
-14z"/>
</g>
</svg>
